<svg xmlns="http://www.w3.org/2000/svg" xmlns:xlink="http://www.w3.org/1999/xlink" viewBox="0,0,256,256" width="100px" height="100px"><g fill="#00b366" fill-rule="nonzero" stroke="none" stroke-width="1" stroke-linecap="butt" stroke-linejoin="miter" stroke-miterlimit="10" stroke-dasharray="" stroke-dashoffset="0" font-family="none" font-weight="none" font-size="none" text-anchor="none" style="mix-blend-mode: normal"><g transform="scale(5.12,5.12)"><path d="M28.5,10c-4.866,0 -9.26336,2.80936 -11.31836,7.19336c-0.557,-0.129 -1.11964,-0.19336 -1.68164,-0.19336c-3.562,0 -6.60308,2.48336 -7.33008,5.94336c-3.149,1.467 -5.16992,4.62333 -5.16992,8.11133c0,4.933 4.01331,8.94531 8.94531,8.94531h25.33984c5.357,0 9.71484,-4.35884 9.71484,-9.71484c0,-3.944 -2.42631,-7.51809 -6.07031,-8.99609c-0.614,-6.356 -6.01369,-11.28906 -12.42969,-11.28906zM28.5,11c7.372,0 11.44847,6.45995 11.48047,11.00195c3.184,1.024 6.01953,4.2172 6.01953,8.2832c0,4.805 -3.90984,8.71484 -8.71484,8.71484h-25.33984c-4.382,0 -7.94531,-3.56331 -7.94531,-7.94531c0,-3.619 2.39059,-6.3772 5.05859,-7.4082c0.253,-2.431 2.50941,-5.64648 6.44141,-5.64648c0.609,0 1.536,0.12567 2.25,0.38867c0.56,-1.772 3.813,-7.38867 10.75,-7.38867zM25.5,20c-0.276,0 -0.5,0.224 -0.5,0.5v7.5h-2.80664c-0.993,0 -1.5485,1.14283 -0.9375,1.92383l3.30664,4.22656c0.477,0.609 1.398,0.609 1.875,0l3.30664,-4.22656c0.612,-0.781 0.0545,-1.92383 -0.9375,-1.92383h-2.80664v-7.5c0,-0.276 -0.224,-0.5 -0.5,-0.5z"></path></g></g></svg>